<svg width="257" height="129" xmlns="http://www.w3.org/2000/svg" style="vector-effect: non-scaling-stroke;" stroke="null">

 <g stroke="null">
  <title stroke="null">background</title>
  <rect stroke="null" fill="none" id="canvas_background" height="131" width="259" y="-1" x="-1"/>
 </g>
 <g stroke="null">
  <title stroke="null">Layer 1</title>
  <path stroke="null" id="svg_1" d="m19,14l0,-2l10,0l0,2l-10,0zm1,-7l3,0l0,-5l2,0l0,5l3,0l-4,4l-4,-4z" fill="#020202"/>
  <path stroke="null" id="svg_2" d="m40,6c-3.2,0 -6,2.5 -6,7c1.1,-1.7 2.4,-3 6,-3l0,3l6,-5l-6,-5l0,3z" fill="#020202"/>
  <path stroke="null" id="svg_5" d="m10.6515,2.3645c-0.3975,-0.3975 -0.994,-0.3975 -1.392,0l-6.9615,6.9615c-0.1985,0.199 -0.298,0.3975 -0.298,0.696l0,2.9835c0,0.5965 0.3975,0.9945 0.9945,0.9945l2.983,0c0.2985,0 0.4975,-0.0995 0.6965,-0.2985l6.961,-6.9615c0.398,-0.3975 0.398,-0.994 0,-1.392l-2.9835,-2.9835zm-5.0715,9.6465l-1.5915,0l0,-1.591l5.967,-5.967l1.591,1.591l-5.9665,5.967z" fill="#020202"/>
  <style transform="matrix(0.2006293313784733,0,0,0.2006293313784733,0,0) " type="text/css">.st0{fill:#333333;}</style>
  <g stroke="null" id="svg_14">
   <g stroke="null" transform="matrix(0.2006293313784733,0,0,0.2006293293798165,0,-1.4594397512723845e-7) " id="svg_11">
    <path stroke="null" d="m249.215807,14.95295l0,48.8l16.3,0l0,16.3l22.8,-16.3l25.9,0l0,-48.8l-65,0zm56.9,40.6l-16.3,0l-16.2,12.2l0,-12.2l-16.3,0l0,-32.5l48.8,0l0,32.5z" class="st0" id="svg_12"/>
   </g>
  </g>
  <style transform="matrix(0.2006293313784733,0,0,0.2006293313784733,0,0) " type="text/css">.st0{fill:#333333;}</style>
  <g id="svg_23">
   <g transform="matrix(0.2006293313784733,0,0,0.2006293313784733,0,0) " id="svg_20">
    <path d="m386.617823,22.437265c-1,-1.5 -2.8,-2.5 -4.8,-2.5l-32.1,0c-3.2,0 -5.8,2.6 -5.8,5.8l0,29.2c0,3.2 2.6,5.8 5.8,5.8l32.1,0c2,0 3.7,-1 4.8,-2.4l12.7,-18l-12.7,-17.9zm-4.7,32.6l-32.1,0l0,-29.2l32.1,0l10.3,14.6l-10.3,14.6z" class="st0" id="svg_21"/>
   </g>
  </g>
 </g>
</svg>
