<svg width="80" height="16" xmlns="http://www.w3.org/2000/svg">

 <g>
  <title>background</title>
  <rect fill="none" id="canvas_background" height="402" width="582" y="-1" x="-1"/>
 </g>
 <g>
  <title>Layer 1</title>
  <path id="svg_1" d="m19,14l0,-2l10,0l0,2l-10,0zm1,-7l3,0l0,-5l2,0l0,5l3,0l-4,4l-4,-4z" fill="#FFFFFF"/>
  <path id="svg_2" d="m40,6c-3.2,0 -6,2.5 -6,7c1.1,-1.7 2.4,-3 6,-3l0,3l6,-5l-6,-5l0,3z" fill="#FFFFFF"/>
  <path id="svg_5" d="m10.6515,2.3645c-0.3975,-0.3975 -0.994,-0.3975 -1.392,0l-6.9615,6.9615c-0.1985,0.199 -0.298,0.3975 -0.298,0.696l0,2.9835c0,0.5965 0.3975,0.9945 0.9945,0.9945l2.983,0c0.2985,0 0.4975,-0.0995 0.6965,-0.2985l6.961,-6.9615c0.398,-0.3975 0.398,-0.994 0,-1.392l-2.9835,-2.9835zm-5.0715,9.6465l-1.5915,0l0,-1.591l5.967,-5.967l1.591,1.591l-5.9665,5.967z" fill="#FFFFFF"/>
  <g stroke="null" id="svg_43">
   <g stroke="null" transform="matrix(0.01551473862335443,0,0,0.011757218916952477,-43.18574931636775,-7.800461549729391) " id="svg_41">
    <title stroke="null" transform="translate(632.459716796875,191.3707733154297) translate(467.29510498046875,-239.2134552001953) translate(20.142030715942383,10.631709098815918) translate(-28.198843002319336,21.263418197631836) translate(-208.63560485839844,180.06796264648438) translate(998.9795532226562,467.9904479980469) translate(-1250.9718017578125,-503.9886169433594) translate(5312.4130859375,0) translate(0,672.482666015625) ">background</title>
    <rect stroke="null" x="5942.483242" y="799.604905" width="582" height="402" id="svg_39" fill="none"/>
   </g>
   <g stroke="null" transform="matrix(0.01551473862335443,0,0,0.011757218916952477,-43.18574931636775,-7.800461549729391) " id="svg_42">
    <title stroke="null" transform="translate(632.459716796875,191.3707733154297) translate(467.29510498046875,-239.2134552001953) translate(20.142030715942383,10.631709098815918) translate(-28.198843002319336,21.263418197631836) translate(-208.63560485839844,180.06796264648438) translate(998.9795532226562,467.9904479980469) translate(-1250.9718017578125,-503.9886169433594) translate(5312.4130859375,0) translate(0,672.482666015625) ">Layer 1</title>
    <path stroke="null" d="m6199.483242,1312.604905l0,-192l-192,0c-64,0 -64,64 -64,64s0,258 0,320s64,64 64,64l64,0l0,192l194,-192l192,0c0,0 62,-4 62,-64l0,-64c0,0 -64,0 -192,0s-128,-128 -128,-128zm576,-384c0,0 -384,0 -448,0s-64,64 -64,64s0,259.969 0,320c0,60 62,64 62,64l192,0l194,192l0,-192l64,0c0,0 64,-2 64,-64l0,-320c0,-64 -64,-64 -64,-64z" id="svg_38" fill="#ffffff"/>
   </g>
  </g>
  <g stroke="null" id="svg_55">
   <g stroke="null" transform="matrix(0.014826891769573301,0,0,0.015199134130726648,-41.247302597984785,-9.144520971468221) " id="svg_53">
    <title stroke="null" transform="translate(1100.19091796875,-28.784381866455078) translate(8.430582046508789,-16.448217391967773) translate(-67.44465637207031,65.7928695678711) translate(-221.50515747070312,130.1244354248047) translate(30.464738845825195,-7.616184711456299) translate(1934.5108642578125,-22.848554611206055) translate(4403.38427734375,0) translate(0,689.8768920898438) ">background</title>
    <rect stroke="null" x="7187.031567" y="809.096859" width="944" height="572" id="svg_51" fill="none"/>
   </g>
   <g stroke="null" transform="matrix(0.014826891769573301,0,0,0.015199134130726648,-41.247302597984785,-9.144520971468221) " id="svg_54">
    <title stroke="null" transform="translate(1100.19091796875,-28.784381866455078) translate(8.430582046508789,-16.448217391967773) translate(-67.44465637207031,65.7928695678711) translate(-221.50515747070312,130.1244354248047) translate(30.464738845825195,-7.616184711456299) translate(1934.5108642578125,-22.848554611206055) translate(4403.38427734375,0) translate(0,689.8768920898438) ">Layer 1</title>
    <path stroke="null" clip-rule="evenodd" d="m8092.101167,1053.901129l-143.04571,-146.39753c-20.88467,-21.39234 -57.56159,-34.40342 -97.0136,-34.40342l-543.57369,0c-63.1976,0 -114.43657,32.77475 -114.43657,73.19876l0,292.79506c0,40.42402 51.23898,73.19877 114.43657,73.19877l543.57369,0c39.45201,0 76.10032,-13.01108 97.0136,-34.42172l143.04571,-146.39753c23.23063,-23.6981 23.23063,-53.83769 0,-77.57239zm-48.5211,58.17472l-143.04571,146.43413c-10.49956,10.76022 -28.66636,17.18341 -48.4925,17.18341l-543.57369,0c-31.55588,0 -57.21828,-16.43312 -57.21828,-36.59938l0,-292.79507c0,-20.18456 25.6624,-36.59938 57.21828,-36.59938l543.57369,0c19.82614,0 37.99294,6.44149 48.4925,17.18341l143.04571,146.39753c11.52948,11.8033 11.52948,27.02865 0,38.79535z" fill="#ffffff" fill-rule="evenodd" id="svg_50"/>
    <path stroke="null" clip-rule="evenodd" d="m7920.031867,1036.096779c-32.05483,0 -58.00029,24.84563 -58.00029,55.50028c0,30.65465 25.94546,55.50028 58.00029,55.50028c32.01616,0 58.00029,-24.86413 58.00029,-55.50028c0,-30.65465 -25.98413,-55.50028 -58.00029,-55.50028zm0,92.51897c-21.36344,0 -38.66686,-16.57609 -38.66686,-37.00019c0,-20.4241 17.30342,-37.00019 38.66686,-37.00019c21.34411,0 38.66686,16.57609 38.66686,37.00019c0,20.4056 -17.32275,37.00019 -38.66686,37.00019z" fill="#ffffff" fill-rule="evenodd" id="svg_49"/>
   </g>
  </g>
 </g>
</svg>