<svg width="120" height="48" xmlns="http://www.w3.org/2000/svg">

 <g>
  <title>background</title>
  <rect fill="none" id="canvas_background" height="402" width="582" y="-1" x="-1"/>
 </g>
 <g>
  <title>Layer 1</title>
  <g id="svg_1">
   <polygon id="svg_2" points="2,9.6 2,24 9,24 9,17 15,17 15,24 22,24 22,9.6 12,0.7  " fill="#FFFFFF"/>
  </g>
  <rect id="svg_3" height="2" width="14" fill="#FFFFFF" y="20" x="77"/>
  <rect id="svg_4" height="2" width="14" fill="#3498db" y="44" x="77"/>
  <path id="svg_5" d="m72,2l0,16l24,0l0,-16l-24,0zm9,13l0,-10l6.7,5l-6.7,5z" fill="#FFFFFF"/>
  <g id="svg_6">
   <path id="svg_7" d="m46,8l-6,0c-1.1,0 -2,0.9 -2,2l0,12c0,1.1 0.9,2 2,2l6,0c1.1,0 2,-0.9 2,-2l0,-12c0,-1.1 -0.9,-2 -2,-2zm0,12l-6,0l0,-10l6,0l0,10z" fill="#FFFFFF"/>
   <path id="svg_8" d="m36,15l-6,0l0,-12l14,0l0,3l2,0c0.3,0 0.7,0.1 1,0.1l0,-4.1c0,-1.1 -0.9,-2 -2,-2l-19,0c-1.1,0 -2,0.9 -2,2l0,14c0,1.1 0.9,2 2,2l10,0l0,-3zm-8,-4l-2,0l0,-4l2,0l0,4z" fill="#FFFFFF"/>
  </g>
  <g id="svg_9">
   <path id="svg_10" d="m96,1l0,22l24,0l0,-22l-24,0zm22,2l0,9.9l-5.1,-4.3l-6,7l-4.9,-3.9l-4,3.2l0,-11.9l20,0z" fill="#FFFFFF"/>
   <circle id="svg_11" r="3" cy="8" cx="106" fill="#FFFFFF"/>
  </g>
  <g id="svg_12">
   <polygon id="svg_13" points="2,34.599998474121094 2,49 9,49 9,42 15,42 15,49 22,49 22,34.599998474121094 12,25.700000762939453 " fill="#3498db"/>
  </g>
  <path id="svg_14" d="m72,26l0,16l24,0l0,-16l-24,0zm9,13l0,-10l6.7,5l-6.7,5z" fill="#3498db"/>
  <g id="svg_15">
   <path id="svg_16" d="m46,32l-6,0c-1.1,0 -2,0.9 -2,2l0,12c0,1.1 0.9,2 2,2l6,0c1.1,0 2,-0.9 2,-2l0,-12c0,-1.1 -0.9,-2 -2,-2zm0,12l-6,0l0,-10l6,0l0,10z" fill="#3498db"/>
   <path id="svg_17" d="m36,39l-6,0l0,-12l14,0l0,3l2,0c0.3,0 0.7,0.1 1,0.1l0,-4.1c0,-1.1 -0.9,-2 -2,-2l-19,0c-1.1,0 -2,0.9 -2,2l0,14c0,1.1 0.9,2 2,2l10,0l0,-3zm-8,-4l-2,0l0,-4l2,0l0,4z" fill="#3498db"/>
  </g>
  <g id="svg_18">
   <path id="svg_19" d="m96,25l0,22l24,0l0,-22l-24,0zm22,2l0,9.9l-5.1,-4.3l-6,7l-4.9,-3.9l-4,3.2l0,-11.9l20,0z" fill="#3498db"/>
   <circle id="svg_20" r="3" cy="32" cx="106" fill="#3498db"/>
  </g>
  <g id="svg_21">
   <path id="svg_22" d="m72,19l0,-18l-24,0l0,18l9,0l0,2l-4,0l0,2l4,0l6,0l4,0l0,-2l-4,0l0,-2l9,0zm-21,-3l0,-12l18,0l0,12l-18,0z" fill="#FFFFFF"/>
  </g>
  <g id="svg_23">
   <path id="svg_24" d="m72,43l0,-18l-24,0l0,18l9,0l0,2l-4,0l0,2l4,0l6,0l4,0l0,-2l-4,0l0,-2l9,0zm-21,-3l0,-12l18,0l0,12l-18,0z" fill="#3498db"/>
  </g>
 </g>
</svg>